PathFileType	4	(X/Y/Z)	/Users/itak/Documents/Research/Walk-IL/dataset/trc/00132_00007.trc
DataRate	CameraRate	NumFrames	NumMarkers	Units	OrigDataRate	OrigDataStartFrame	OrigNumFrames
100.000000	100.000000	4	53	mm	100.000000	280	747
Frame#	Time	RPSI			LPSI			L3			STRN			T10			C7			CLAV			RBAK			LBAK			LSHO			LUPA			LAEL			LAOL			LWTS			LWPS			LFRA			LIFD			LHPS			LHTS			RSHO			RUPA			RAEL			RAOL			RWTS			RWPS			RFRA			RIFD			RHTS			RHPS			RBHD			LFHD			RFHD			LBHD			LHIP			RHIP			RASI			LASI			LKNE			LTHI			LANK			LTIP			LTOE			LMT1			LMT5			LHEE			RKNE			RTHI			RANK			RTIP			RTOE			RMT1			RMT5			RHEE			
		X1	Y1	Z1	X2	Y2	Z2	X3	Y3	Z3	X4	Y4	Z4	X5	Y5	Z5	X6	Y6	Z6	X7	Y7	Z7	X8	Y8	Z8	X9	Y9	Z9	X10	Y10	Z10	X11	Y11	Z11	X12	Y12	Z12	X13	Y13	Z13	X14	Y14	Z14	X15	Y15	Z15	X16	Y16	Z16	X17	Y17	Z17	X18	Y18	Z18	X19	Y19	Z19	X20	Y20	Z20	X21	Y21	Z21	X22	Y22	Z22	X23	Y23	Z23	X24	Y24	Z24	X25	Y25	Z25	X26	Y26	Z26	X27	Y27	Z27	X28	Y28	Z28	X29	Y29	Z29	X30	Y30	Z30	X31	Y31	Z31	X32	Y32	Z32	X33	Y33	Z33	X34	Y34	Z34	X35	Y35	Z35	X36	Y36	Z36	X37	Y37	Z37	X38	Y38	Z38	X39	Y39	Z39	X40	Y40	Z40	X41	Y41	Z41	X42	Y42	Z42	X43	Y43	Z43	X44	Y44	Z44	X45	Y45	Z45	X46	Y46	Z46	X47	Y47	Z47	X48	Y48	Z48	X49	Y49	Z49	X50	Y50	Z50	X51	Y51	Z51	X52	Y52	Z52	X53	Y53	Z53	

281	2.8	-539.1112670898438	1077.561401367188	420.4236755371094	-672.8535766601562	1093.293334960938	415.1790466308594	-608.583740234375	1123.757568359375	424.4279174804688	-587.6569213867188	1308.500244140625	195.9033050537109	-609.5781860351562	1278.192993164062	452.3315734863281	-608.331298828125	1567.0859375	393.9387817382812	-583.768310546875	1445.809326171875	221.5592956542969	-540.711669921875	1381.07373046875	470.6259460449219	-709.9244384765625	1553.511474609375	389.683349609375	-765.5734252929688	1538.571655273438	294.7330017089844	-853.7857055664062	1419.362670898438	302.2558288574219	-913.3231201171875	1212.324951171875	260.1587829589844	-870.1346435546875	1180.040649414062	331.068603515625	-898.430908203125	981.1519775390625	107.5021133422852	-937.9580688476562	941.8400268554688	177.314453125	-934.196044921875	1104.633056640625	219.2704620361328	-904.8367919921875	796.986328125	45.30072784423828	-946.1537475585938	877.6117553710938	129.5051574707031	-921.2369384765625	902.1251831054688	68.59354400634766	-422.1903076171875	1530.256591796875	364.3890075683594	-369.5083923339844	1455.124267578125	399.2748107910156	-387.1143798828125	1166.818969726562	455.6170654296875	-481.1819458007812	1176.2646484375	441.0142517089844	-396.0503234863281	904.9127197265625	350.1560668945312	-384.6596374511719	899.032470703125	432.3043518066406	-375.5713195800781	1089.906860351562	447.2850341796875	-428.8608703613281	711.8224487304688	350.4588623046875	-395.0539855957031	793.2476806640625	339.0034484863281	-382.9980163574219	794.634765625	412.3893432617188	-525.0836181640625	1720.213012695312	374.2769775390625	-558.091552734375	1796.155639648438	168.997802734375	-443.7551574707031	1775.34033203125	226.1746673583984	-646.6641845703125	1746.376220703125	323.04736328125	-786.170654296875	1010.063049316406	327.6113891601562	-430.6563415527344	969.464111328125	292.4969482421875	-476.0897827148438	1045.664672851562	212.8777770996094	-742.6834106445312	1062.688720703125	212.8594512939453	-791.8793334960938	515.6587524414062	402.3748168945312	-805.2413330078125	665.8926391601562	390.3128662109375	-792.1148071289062	64.27285766601562	677.0676879882812	-815.53857421875	310.5658874511719	582.8211669921875	-765.5481567382812	32.23552322387695	442.8905944824219	-722.9691772460938	44.73073959350586	518.4019165039062	-834.1085815429688	33.820068359375	562.273681640625	-724.1914672851562	86.65147399902344	738.13037109375	-504.1270141601562	509.8551025390625	152.7077026367188	-442.094970703125	769.9483032226562	231.3166656494141	-602.4969482421875	22.67281723022461	34.40848541259766	-514.5894165039062	379.3105163574219	132.4458312988281	-520.6355590820312	104.5026092529297	-163.5172729492188	-586.1865844726562	80.329833984375	-148.9967193603516	-512.877197265625	55.04487991333008	-56.37290954589844	-673.50390625	22.70727920532227	56.15655899047852	
282	2.81	-537.9058227539062	1077.710815429688	409.6396179199219	-671.7549438476562	1092.793090820312	403.5718688964844	-607.4419555664062	1123.254516601562	413.1524353027344	-584.8844604492188	1308.408569335938	185.6059417724609	-608.6412353515625	1277.561889648438	441.8044738769531	-606.3751220703125	1566.625732421875	384.3422241210938	-580.90185546875	1445.552368164062	211.8336944580078	-539.5838012695312	1380.27685546875	461.0237731933594	-707.9857177734375	1553.158569335938	379.3636779785156	-763.197998046875	1538.328979492188	283.9503479003906	-851.0700073242188	1418.823974609375	291.1201782226562	-910.0083618164062	1211.656494140625	249.2070465087891	-866.6956787109375	1179.348510742188	320.0904846191406	-894.07666015625	981.3988647460938	95.60301971435547	-933.4098510742188	941.46435546875	165.2001495361328	-930.4439086914062	1104.03759765625	207.9810638427734	-899.8013916015625	797.6624755859375	32.25644302368164	-941.3577880859375	877.5436401367188	117.0105361938477	-916.6078491210938	902.5569458007812	56.21097183227539	-420.0270690917969	1529.434326171875	355.9122009277344	-367.7804565429688	1454.046752929688	390.9402160644531	-386.0624389648438	1165.70751953125	446.4309387207031	-480.0343017578125	1175.283325195312	431.3179626464844	-394.9112854003906	903.6058349609375	341.5227966308594	-383.8980102539062	897.974609375	423.7312316894531	-374.6119689941406	1088.8134765625	438.2497253417969	-428.2921447753906	710.5796508789062	342.4088134765625	-394.2852478027344	791.859130859375	330.7667541503906	-382.4385070800781	793.4967651367188	404.1959838867188	-523.306396484375	1720.143432617188	365.4303894042969	-554.3344116210938	1795.849975585938	159.7987670898438	-440.5630798339844	1775.26708984375	218.1466217041016	-644.3655395507812	1746.019165039062	312.9753723144531	-784.3800659179688	1009.340393066406	315.497314453125	-428.419677734375	970.0442504882812	282.4165649414062	-473.6190795898438	1045.751220703125	202.5664520263672	-740.2138671875	1062.336669921875	201.1053466796875	-791.2438354492188	515.0270385742188	391.3150024414062	-804.3179321289062	665.38671875	378.4776916503906	-793.6106567382812	68.09896850585938	675.6646118164062	-816.1412963867188	313.1438293457031	575.8614501953125	-765.52197265625	32.20210266113281	442.9346008300781	-723.610595703125	45.42282104492188	517.9500732421875	-834.3969116210938	33.87816619873047	561.6109619140625	-726.203857421875	92.87206268310547	736.1907958984375	-502.4009704589844	509.7605895996094	144.0061340332031	-440.5430603027344	770.4735717773438	220.4936218261719	-602.023193359375	22.90647125244141	32.55287933349609	-512.9512939453125	378.8653564453125	124.9681243896484	-519.0159301757812	98.17678070068359	-167.1242828369141	-584.5980224609375	74.602294921875	-152.5174713134766	-512.00732421875	51.99405288696289	-58.74228668212891	-673.2347412109375	23.27333641052246	53.37085342407227	
283	2.82	-536.5609741210938	1078.44287109375	398.7467651367188	-670.5235595703125	1092.67236328125	391.8720092773438	-606.1822509765625	1123.223876953125	401.7598571777344	-581.9229125976562	1308.783325195312	175.1882171630859	-607.7223510742188	1277.360229492188	431.145263671875	-604.3585815429688	1566.573120117188	374.6861572265625	-577.8739624023438	1445.746215820312	202.0469818115234	-538.4790649414062	1379.864868164062	451.3501586914062	-705.9719848632812	1553.234619140625	368.8890686035156	-760.7069702148438	1538.562622070312	272.9900817871094	-848.1979370117188	1418.700561523438	279.8660888671875	-906.4126586914062	1211.318603515625	238.4425354003906	-862.8611450195312	1179.098999023438	309.3031921386719	-889.4467163085938	981.7777709960938	84.19151306152344	-928.4940185546875	941.30322265625	153.6646270751953	-926.3771362304688	1103.703369140625	197.0306396484375	-894.5269165039062	798.419189453125	19.91979598999023	-936.2266845703125	877.6316528320312	105.1848983764648	-911.7113037109375	903.0697021484375	44.43867111206055	-417.8087158203125	1528.979858398438	347.5160217285156	-366.0264282226562	1453.317016601562	382.6719665527344	-384.8475036621094	1164.91748046875	437.0975646972656	-478.730712890625	1174.586303710938	421.4433898925781	-393.4828186035156	902.64111328125	332.6641540527344	-382.8483276367188	897.2586669921875	414.9326477050781	-373.4588623046875	1088.057373046875	429.0350341796875	-427.3935241699219	709.6560668945312	334.1657409667969	-393.2059020996094	790.8003540039062	322.3240661621094	-381.5492858886719	792.7120971679688	395.7955322265625	-521.3401489257812	1720.5146484375	356.5556030273438	-550.3511352539062	1795.9560546875	150.5713195800781	-437.1634521484375	1775.58544921875	210.0931243896484	-641.8472290039062	1746.129272460938	302.8745422363281	-782.3416137695312	1008.898742675781	303.178466796875	-425.8464660644531	971.3373413085938	272.3689880371094	-470.8386535644531	1046.42626953125	192.2393188476562	-737.4236450195312	1062.316284179688	189.1624450683594	-790.3713989257812	514.4535522460938	379.306640625	-803.149658203125	664.9788818359375	365.9153442382812	-795.1698608398438	72.42849731445312	673.8716430664062	-816.7131958007812	316.0531616210938	568.0926513671875	-765.508056640625	32.19557189941406	443.0021667480469	-724.2642822265625	46.19120788574219	517.376953125	-834.6522827148438	34.05841445922852	560.78955078125	-728.3626708984375	99.85348510742188	733.6265869140625	-500.4582824707031	510.3227233886719	135.1182708740234	-438.7188110351562	771.7003784179688	209.4310607910156	-601.9424438476562	23.20739936828613	31.77008628845215	-511.1863708496094	378.9237365722656	117.5725936889648	-518.4791259765625	91.90342712402344	-170.0649261474609	-584.07763671875	68.98527526855469	-154.9834289550781	-511.8122253417969	49.30363464355469	-60.35151672363281	-673.2603759765625	23.84035873413086	51.86850357055664	
284	2.83	-535.0673217773438	1079.750732421875	387.7900390625	-669.1541748046875	1092.96435546875	380.1163024902344	-604.7935791015625	1123.703979492188	390.3035583496094	-578.7646484375	1309.652709960938	164.6814727783203	-606.82763671875	1277.62060546875	420.3883056640625	-602.3179321289062	1566.946166992188	364.9821166992188	-574.6846313476562	1446.4306640625	192.2127532958984	-537.4326171875	1379.864868164062	441.6042175292969	-703.9163818359375	1553.758178710938	358.249267578125	-758.0999145507812	1539.313842773438	261.8404541015625	-845.183837890625	1419.041625976562	268.4502258300781	-902.5423583984375	1211.362670898438	227.8576507568359	-858.6561889648438	1179.356567382812	298.7000732421875	-884.5498046875	982.310791015625	73.28373718261719	-923.2088623046875	941.3883056640625	142.7350158691406	-922.0029296875	1103.673828125	186.4232025146484	-889.0059204101562	799.259521484375	8.332892417907715	-930.7586059570312	877.8950805664062	94.06244659423828	-906.5521240234375	903.6787109375	33.31095886230469	-415.5820617675781	1528.944580078125	339.2401428222656	-364.2837524414062	1452.999145507812	374.5171813964844	-383.51513671875	1164.512573242188	427.6578674316406	-477.3064270019531	1174.231567382812	411.3978576660156	-391.7416687011719	902.090576171875	323.586669921875	-381.525634765625	896.9468994140625	405.9191589355469	-372.1431884765625	1087.704345703125	419.6790466308594	-426.1259155273438	709.1210327148438	325.7080078125	-391.7783203125	790.1437377929688	313.6719665527344	-380.3296203613281	792.3453979492188	387.1857299804688	-519.2005004882812	1721.342529296875	347.660400390625	-546.1494750976562	1796.487548828125	141.3218383789062	-433.5687561035156	1776.298461914062	202.0220489501953	-639.12451171875	1746.73779296875	292.7502136230469	-780.0344848632812	1008.778137207031	290.6617736816406	-422.9674987792969	973.30126953125	262.403564453125	-467.7469177246094	1047.711303710938	181.9497680664062	-734.3067626953125	1062.671508789062	177.0628662109375	-789.2611083984375	513.9561767578125	366.2645263671875	-801.7242431640625	664.7008666992188	352.5840759277344	-796.74658203125	77.31780242919922	671.5897827148438	-817.2313232421875	319.3079528808594	559.39306640625	-765.519775390625	32.21210861206055	443.1005249023438	-724.907958984375	47.02053070068359	516.6485595703125	-834.8651733398438	34.40895462036133	559.778564453125	-730.6292114257812	107.6445083618164	730.2838134765625	-498.3386535644531	511.4759216308594	126.2430419921875	-436.6174621582031	773.5308837890625	198.3421936035156	-602.0464477539062	23.53371238708496	31.56866455078125	-509.2918090820312	379.4667663574219	110.3313674926758	-518.8966064453125	86.32861328125	-172.6742095947266	-584.5073852539062	64.06617736816406	-156.7418670654297	-512.1275634765625	47.2968635559082	-61.66157913208008	-673.3634033203125	24.3685302734375	51.25014877319336	
